<svg xmlns="http://www.w3.org/2000/svg" xmlns:xlink="http://www.w3.org/1999/xlink" viewBox="0 0 1275.46 286.95"><defs><style>.cls-1{fill:#ce0e2d;}.cls-2{fill:#24272a;}.cls-3{clip-path:url(#clip-path);}.cls-4{clip-path:url(#clip-path-2);}.cls-5{clip-path:url(#clip-path-3);}.cls-6{clip-path:url(#clip-path-4);}.cls-7{clip-path:url(#clip-path-5);}.cls-8{clip-path:url(#clip-path-6);}.cls-9{clip-path:url(#clip-path-7);}.cls-10{clip-path:url(#clip-path-8);}.cls-11{clip-path:url(#clip-path-9);}.cls-12{clip-path:url(#clip-path-10);}.cls-13{clip-path:url(#clip-path-11);}.cls-14{clip-path:url(#clip-path-12);}.cls-15{clip-path:url(#clip-path-13);}.cls-16{clip-path:url(#clip-path-14);}.cls-17{clip-path:url(#clip-path-15);}.cls-18{clip-path:url(#clip-path-16);}</style><clipPath id="clip-path"><path class="cls-1" d="M164,216.82a1.19,1.19,0,0,0,.32-1.37h0C121.05,120.79,61.85,49,61.85,49s-32.2,30.62-29.91,61.26c1.23,23.2,18.66,36.93,18.66,36.93,28.09,27.4,96.09,62,111.9,69.85a1.33,1.33,0,0,0,1.51-.25"/></clipPath><clipPath id="clip-path-2"><rect class="cls-1" x="29.63" y="49.08" width="134.96" height="168.36"/></clipPath><clipPath id="clip-path-3"><path class="cls-1" d="M153.49,240.24a1.54,1.54,0,0,0-1.46-1v0l-113.2,3.95c12.28,21.92,33,38.94,54.5,33.71,14.86-3.71,48.53-27.22,59.64-35.17l0,0c.85-.79.55-1.42.55-1.42"/></clipPath><clipPath id="clip-path-4"><rect class="cls-1" x="38.91" y="239.27" width="115.03" height="42.82"/></clipPath><clipPath id="clip-path-5"><path class="cls-1" d="M155.2,230.07c.55-.89-.42-1.68-.42-1.68v0C105.06,194.79,8.69,143.24,8.69,143.24c-8.76,27.15,3,49,3,49,12.29,26,35.74,33.86,35.74,33.86a69.23,69.23,0,0,0,21.65,4.76c1.7.31,67.33,0,84.92-.06a1.52,1.52,0,0,0,1.16-.76"/></clipPath><clipPath id="clip-path-6"><rect class="cls-1" y="143.15" width="155.92" height="88.02"/></clipPath><clipPath id="clip-path-7"><path class="cls-1" d="M162.72.09c-4.93.43-18.23,3.46-18.23,3.46-30,7.74-37.05,35-37.05,35-5.48,17.14.14,35.95.14,35.95,10,44.44,59.24,117.46,69.82,132.79.74.76,1.34.48,1.34.48a1.41,1.41,0,0,0,1.06-1.41v0C196.1,43.31,162.72.09,162.72.09"/></clipPath><clipPath id="clip-path-8"><rect class="cls-1" x="102.06" width="94.04" height="207.97"/></clipPath><clipPath id="clip-path-9"><path class="cls-1" d="M200.2,207.73a1.32,1.32,0,0,0,1.64-.62h0c10.86-15.74,59.81-88.37,69.76-132.63,0,0,5.41-21.44.19-35.95,0,0-7.4-27.66-37.42-35,0,0-8.65-2.18-17.82-3.48,0,0-33.56,43.24-17.24,206.39h0a1.39,1.39,0,0,0,.86,1.25"/></clipPath><clipPath id="clip-path-10"><rect class="cls-1" x="183" y="0.09" width="94.01" height="208.06"/></clipPath><clipPath id="clip-path-11"><path class="cls-1" d="M227,239.3a1.67,1.67,0,0,0-1.27.87,1.61,1.61,0,0,0,.43,1.53h0c10.84,7.77,43.69,30.78,59.53,35.24,0,0,29.26,10,54.67-33.73L227,239.27Z"/></clipPath><clipPath id="clip-path-12"><rect class="cls-1" x="225.49" y="239.27" width="114.86" height="47.68"/></clipPath><clipPath id="clip-path-13"><path class="cls-1" d="M370.49,143s-96.23,51.7-146,85.3v0a1.49,1.49,0,0,0-.58,1.64s.46.85,1.17.85h0c17.8,0,85.24.1,87-.21a67.61,67.61,0,0,0,19.49-4.48s24-7.63,36.43-34.92c0,0,11.12-22.23,2.52-48.21"/></clipPath><clipPath id="clip-path-14"><rect class="cls-1" x="223.62" y="143" width="155.47" height="87.92"/></clipPath><clipPath id="clip-path-15"><path class="cls-1" d="M215.41,216.82a1.41,1.41,0,0,0,1.53.09v0c16.21-8.07,83.7-42.44,111.65-69.71,0,0,17.7-14.24,18.63-37.08C349.27,78.4,317.36,49,317.36,49s-59,71.54-102.29,166h0a1.61,1.61,0,0,0,.32,1.81"/></clipPath><clipPath id="clip-path-16"><rect class="cls-1" x="214.59" y="49.03" width="134.67" height="168.37"/></clipPath></defs><title>logo</title><g id="图层_2" data-name="图层 2"><g id="图层_1-2" data-name="图层 1"><polygon class="cls-2" points="536.19 148.14 472.05 148.14 472.05 91.66 443.64 91.66 443.64 231.66 472.05 231.66 472.05 174.8 536.19 174.8 536.19 231.66 564.59 231.66 564.59 91.66 536.19 91.66 536.19 148.14"/><path class="cls-2" d="M696.2,171.79c0,22.76-11.3,34.92-31.82,34.92s-32-12.5-32-35.89V91.74H604v80.05c0,39.38,21.88,62,60,62,38.52,0,60.61-23,60.61-63.12v-79H696.2Z"/><polygon class="cls-2" points="1024.49 187.92 992.7 91.64 969.52 91.64 937.74 187.92 906.82 91.72 876.58 91.72 925.37 231.66 948.89 231.66 980.73 139.73 1012.55 231.66 1036.27 231.66 1084.94 91.72 1055.48 91.72 1024.49 187.92"/><polygon class="cls-2" points="1135.86 171.41 1187.53 171.41 1187.53 145.91 1135.86 145.91 1135.86 117.25 1210.86 117.25 1210.86 91.75 1107.84 91.75 1107.84 231.57 1213.56 231.57 1213.56 206.07 1135.86 206.07 1135.86 171.41"/><rect class="cls-2" x="1247.43" y="91.65" width="28.02" height="139.81"/><path class="cls-2" d="M844.82,202.43l12.57,29.14h29.77L826.06,92.46l-.55-.8H800.68L739,231.57h29l11.89-27.09h0l.86-2Zm-32.11-75.35L833,173.94h-.07l1.36,3.25h-43l1.36-3.25h0Z"/><path class="cls-1" d="M164,216.82a1.19,1.19,0,0,0,.32-1.37h0C121.05,120.79,61.85,49,61.85,49s-32.2,30.62-29.91,61.26c1.23,23.2,18.66,36.93,18.66,36.93,28.09,27.4,96.09,62,111.9,69.85a1.33,1.33,0,0,0,1.51-.25"/><g class="cls-3"><rect class="cls-1" x="29.63" y="49.08" width="134.96" height="168.36"/><g class="cls-4"><rect class="cls-1" x="29.63" y="49.08" width="134.96" height="168.36"/><rect class="cls-1" x="29.63" y="49.08" width="134.96" height="168.36"/></g></g><path class="cls-1" d="M153.49,240.24a1.54,1.54,0,0,0-1.46-1v0l-113.2,3.95c12.28,21.92,33,38.94,54.5,33.71,14.86-3.71,48.53-27.22,59.64-35.17l0,0c.85-.79.55-1.42.55-1.42"/><g class="cls-5"><rect class="cls-1" x="38.91" y="239.27" width="115.03" height="42.82"/><g class="cls-6"><rect class="cls-1" x="38.91" y="239.27" width="115.03" height="42.82"/><rect class="cls-1" x="38.91" y="239.27" width="115.03" height="42.82"/></g></g><path class="cls-1" d="M155.2,230.07c.55-.89-.42-1.68-.42-1.68v0C105.06,194.79,8.69,143.24,8.69,143.24c-8.76,27.15,3,49,3,49,12.29,26,35.74,33.86,35.74,33.86a69.23,69.23,0,0,0,21.65,4.76c1.7.31,67.33,0,84.92-.06a1.52,1.52,0,0,0,1.16-.76"/><g class="cls-7"><rect class="cls-1" y="143.15" width="155.92" height="88.02"/><g class="cls-8"><rect class="cls-1" y="143.15" width="155.92" height="88.02"/><rect class="cls-1" y="143.15" width="155.92" height="88.02"/></g></g><path class="cls-1" d="M162.72.09c-4.93.43-18.23,3.46-18.23,3.46-30,7.74-37.05,35-37.05,35-5.48,17.14.14,35.95.14,35.95,10,44.44,59.24,117.46,69.82,132.79.74.76,1.34.48,1.34.48a1.41,1.41,0,0,0,1.06-1.41v0C196.1,43.31,162.72.09,162.72.09"/><g class="cls-9"><rect class="cls-1" x="102.06" width="94.04" height="207.97"/><g class="cls-10"><rect class="cls-1" x="102.06" width="94.04" height="207.97"/><rect class="cls-1" x="102.06" width="94.04" height="207.97"/></g></g><path class="cls-1" d="M200.2,207.73a1.32,1.32,0,0,0,1.64-.62h0c10.86-15.74,59.81-88.37,69.76-132.63,0,0,5.41-21.44.19-35.95,0,0-7.4-27.66-37.42-35,0,0-8.65-2.18-17.82-3.48,0,0-33.56,43.24-17.24,206.39h0a1.39,1.39,0,0,0,.86,1.25"/><g class="cls-11"><rect class="cls-1" x="183" y="0.09" width="94.01" height="208.06"/><g class="cls-12"><rect class="cls-1" x="183" y="0.09" width="94.01" height="208.06"/><rect class="cls-1" x="183" y="0.09" width="94.01" height="208.06"/></g></g><path class="cls-1" d="M227,239.3a1.67,1.67,0,0,0-1.27.87,1.61,1.61,0,0,0,.43,1.53h0c10.84,7.77,43.69,30.78,59.53,35.24,0,0,29.26,10,54.67-33.73L227,239.27Z"/><g class="cls-13"><rect class="cls-1" x="225.49" y="239.27" width="114.86" height="47.68"/><g class="cls-14"><rect class="cls-1" x="225.49" y="239.27" width="114.86" height="47.68"/><rect class="cls-1" x="225.49" y="239.27" width="114.86" height="47.68"/></g></g><path class="cls-1" d="M370.49,143s-96.23,51.7-146,85.3v0a1.49,1.49,0,0,0-.58,1.64s.46.85,1.17.85h0c17.8,0,85.24.1,87-.21a67.61,67.61,0,0,0,19.49-4.48s24-7.63,36.43-34.92c0,0,11.12-22.23,2.52-48.21"/><g class="cls-15"><rect class="cls-1" x="223.62" y="143" width="155.47" height="87.92"/><g class="cls-16"><rect class="cls-1" x="223.62" y="143" width="155.47" height="87.92"/><rect class="cls-1" x="223.62" y="143" width="155.47" height="87.92"/></g></g><path class="cls-1" d="M215.41,216.82a1.41,1.41,0,0,0,1.53.09v0c16.21-8.07,83.7-42.44,111.65-69.71,0,0,17.7-14.24,18.63-37.08C349.27,78.4,317.36,49,317.36,49s-59,71.54-102.29,166h0a1.61,1.61,0,0,0,.32,1.81"/><g class="cls-17"><rect class="cls-1" x="214.59" y="49.03" width="134.67" height="168.37"/><g class="cls-18"><rect class="cls-1" x="214.59" y="49.03" width="134.67" height="168.37"/><rect class="cls-1" x="214.59" y="49.03" width="134.67" height="168.37"/></g></g><path class="cls-1" d="M296.52,123.53"/><path class="cls-1" d="M296.52,126c3.22,0,3.23-5,0-5s-3.22,5,0,5Z"/></g></g></svg>